<?xml version="1.0" encoding="utf-8"?>
<!-- Generator: Adobe Illustrator 14.0.0, SVG Export Plug-In . SVG Version: 6.00 Build 43363)  -->
<!DOCTYPE svg PUBLIC "-//W3C//DTD SVG 1.1//EN" "http://www.w3.org/Graphics/SVG/1.1/DTD/svg11.dtd">
<svg version="1.1" id="Layer_1" xmlns="http://www.w3.org/2000/svg" xmlns:xlink="http://www.w3.org/1999/xlink" x="0px" y="0px"
	 width="196px" height="89px" viewBox="0 0 196 89" enable-background="new 0 0 196 89" xml:space="preserve">
<g>
	<g>
		<path fill="#00B4F0" d="M44.508,0C19.853,0.004,0.004,20.369,0,44.941c-0.004,24.573,19.836,44.05,44.492,44.046
			C69.148,88.982,88.996,68.618,89,44.045S69.165-0.005,44.508,0z M69.02,43.585l-0.028-4.568l-9.961,0.028v9.989
			c-0.001,5.378,4.596,9.991,9.99,9.99v8.174c-10.131,0.001-19.074-8.062-19.071-18.164v-9.989l-20.283-0.028
			c-5.394,0.001-10.348,4.891-10.349,10.27c-0.001,5.378,5.112,9.54,10.506,9.539s9.227-4.413,9.228-9.791h8.173
			c-0.002,10.103-7.426,18.051-17.558,18.052c-10.131,0.002-18.629-7.697-18.628-17.8c0.002-10.103,8.799-18.414,18.931-18.415
			h19.98V14.524h9.082v16.347h9.99V26.33l10.321,8.579L69.02,43.585z"/>
	</g>
</g>
<g>
	<g>
		<path fill="#696A6B" d="M107.305,41.456c1.39,0.55,2.915,0.824,4.575,0.824c1.82,0,3.41-0.324,4.77-0.975
			c1.36-0.649,2.51-1.564,3.451-2.745l-3.031-2.13c-0.539,0.74-1.25,1.336-2.129,1.785c-0.881,0.45-1.891,0.676-3.031,0.676
			c-1.1,0-2.09-0.19-2.969-0.57c-0.881-0.38-1.636-0.915-2.266-1.605c-0.63-0.689-1.115-1.515-1.455-2.475
			c-0.34-0.961-0.51-2.02-0.51-3.18c0-1.101,0.175-2.12,0.525-3.061c0.35-0.939,0.85-1.759,1.5-2.46
			c0.649-0.7,1.425-1.25,2.324-1.65c0.9-0.4,1.9-0.6,3-0.6c0.859,0,1.74,0.175,2.641,0.525c0.899,0.35,1.629,0.904,2.189,1.665
			l2.881-2.28c-0.42-0.56-0.931-1.04-1.531-1.44c-0.6-0.4-1.24-0.735-1.92-1.005s-1.39-0.47-2.129-0.6
			c-0.74-0.13-1.451-0.195-2.131-0.195c-1.64,0-3.16,0.26-4.56,0.78c-1.4,0.521-2.615,1.26-3.646,2.22
			c-1.029,0.96-1.84,2.125-2.43,3.495s-0.885,2.905-0.885,4.605c0,1.66,0.279,3.175,0.84,4.545c0.56,1.37,1.34,2.55,2.34,3.539
			C104.72,40.135,105.915,40.906,107.305,41.456z M122.14,40.015c0.7,0.671,1.53,1.196,2.49,1.575c0.96,0.38,1.98,0.57,3.061,0.57
			s2.1-0.19,3.06-0.57c0.96-0.379,1.79-0.904,2.49-1.575c0.7-0.669,1.255-1.475,1.665-2.414c0.41-0.94,0.615-1.98,0.615-3.12
			c0-1.141-0.205-2.175-0.615-3.105c-0.41-0.93-0.965-1.725-1.665-2.385c-0.7-0.66-1.53-1.169-2.49-1.53
			c-0.96-0.36-1.979-0.54-3.06-0.54s-2.101,0.18-3.061,0.54c-0.96,0.36-1.79,0.87-2.49,1.53c-0.699,0.661-1.255,1.456-1.664,2.385
			c-0.41,0.93-0.615,1.965-0.615,3.105c0,1.14,0.205,2.18,0.615,3.12C120.885,38.541,121.44,39.346,122.14,40.015z M123.774,32.816
			c0.17-0.55,0.426-1.045,0.766-1.485c0.34-0.439,0.77-0.795,1.29-1.065s1.14-0.405,1.86-0.405c0.72,0,1.34,0.135,1.859,0.405
			s0.949,0.625,1.29,1.065c0.341,0.44,0.595,0.935,0.765,1.485s0.256,1.105,0.256,1.665s-0.086,1.12-0.256,1.68
			c-0.17,0.56-0.424,1.06-0.765,1.5c-0.341,0.439-0.771,0.8-1.29,1.08s-1.14,0.42-1.859,0.42c-0.721,0-1.34-0.14-1.86-0.42
			s-0.95-0.641-1.29-1.08c-0.34-0.44-0.596-0.94-0.766-1.5c-0.17-0.56-0.254-1.12-0.254-1.68S123.604,33.366,123.774,32.816z
			 M140.46,19.061h-3.6v22.68h3.6V19.061z M146.3,19.061h-3.6v22.68h3.6V19.061z M149.845,40.151c0.69,0.64,1.505,1.135,2.445,1.484
			c0.939,0.351,1.97,0.525,3.09,0.525c2.7,0,4.76-0.96,6.181-2.881l-2.4-1.919c-0.4,0.581-0.911,1.035-1.53,1.365
			c-0.62,0.331-1.38,0.496-2.279,0.496c-0.521,0-1.021-0.09-1.5-0.271c-0.48-0.179-0.91-0.424-1.291-0.734
			c-0.38-0.31-0.686-0.68-0.914-1.11c-0.23-0.43-0.365-0.905-0.405-1.425h10.949c0.021-0.16,0.03-0.32,0.03-0.48v-0.48
			c0-1.3-0.175-2.435-0.524-3.404c-0.351-0.97-0.836-1.78-1.455-2.431c-0.62-0.649-1.355-1.14-2.205-1.47
			c-0.851-0.33-1.774-0.495-2.774-0.495c-1.08,0-2.086,0.185-3.016,0.555c-0.93,0.371-1.735,0.89-2.415,1.561
			c-0.681,0.67-1.215,1.48-1.604,2.43c-0.391,0.95-0.586,2.005-0.586,3.165c0,1.181,0.195,2.235,0.586,3.166
			C148.615,38.725,149.155,39.51,149.845,40.151z M152.485,30.595c0.75-0.649,1.664-0.975,2.744-0.975
			c0.58,0,1.086,0.095,1.516,0.285s0.785,0.445,1.064,0.765c0.28,0.321,0.485,0.69,0.615,1.11s0.195,0.86,0.195,1.319h-7.38
			C151.319,32.081,151.735,31.246,152.485,30.595z M175.721,29.5h-0.061c-0.521-0.88-1.221-1.53-2.1-1.95
			c-0.881-0.42-1.83-0.63-2.851-0.63c-1.08,0-2.055,0.2-2.925,0.6c-0.87,0.401-1.61,0.941-2.221,1.621
			c-0.609,0.68-1.08,1.479-1.409,2.399c-0.33,0.92-0.495,1.9-0.495,2.94c0,1.02,0.17,1.985,0.51,2.895
			c0.34,0.91,0.814,1.705,1.426,2.385c0.609,0.681,1.354,1.221,2.234,1.62c0.88,0.399,1.859,0.601,2.939,0.601
			c1,0,1.906-0.188,2.715-0.561c0.811-0.375,1.476-0.914,1.996-1.621h0.06v1.053c0,0.723-0.075,1.385-0.226,1.988
			c-0.149,0.602-0.4,1.123-0.75,1.564s-0.82,0.789-1.409,1.039c-0.591,0.252-1.315,0.377-2.175,0.377c-0.9,0-1.791-0.176-2.67-0.525
			c-0.881-0.35-1.67-0.854-2.371-1.514l-2.069,2.79c0.46,0.379,0.979,0.721,1.56,1.02c0.58,0.301,1.186,0.551,1.815,0.75
			s1.271,0.35,1.92,0.451c0.649,0.1,1.265,0.15,1.845,0.15c1.4,0,2.61-0.201,3.631-0.602c1.02-0.4,1.864-0.965,2.535-1.695
			c0.67-0.729,1.164-1.619,1.484-2.669c0.32-1.049,0.48-2.225,0.48-3.524V27.34h-3.42V29.5z M175.42,36.155
			c-0.199,0.549-0.484,1.032-0.855,1.45c-0.369,0.419-0.82,0.753-1.35,1.002c-0.53,0.249-1.125,0.374-1.785,0.374
			c-0.641,0-1.215-0.129-1.725-0.39c-0.51-0.259-0.94-0.603-1.29-1.031c-0.351-0.429-0.62-0.912-0.81-1.45
			c-0.191-0.539-0.285-1.097-0.285-1.675c0-0.637,0.094-1.235,0.285-1.793c0.189-0.559,0.459-1.042,0.81-1.45
			c0.35-0.409,0.78-0.733,1.29-0.972c0.51-0.24,1.095-0.359,1.755-0.359s1.25,0.12,1.771,0.359c0.52,0.238,0.965,0.567,1.334,0.986
			c0.371,0.418,0.656,0.907,0.855,1.465c0.199,0.558,0.301,1.146,0.301,1.764C175.721,35.034,175.619,35.607,175.42,36.155z
			 M194.475,31.316c-0.35-0.97-0.835-1.78-1.455-2.431c-0.619-0.649-1.354-1.14-2.205-1.47c-0.85-0.33-1.774-0.495-2.774-0.495
			c-1.08,0-2.085,0.185-3.015,0.555c-0.93,0.371-1.736,0.89-2.415,1.561c-0.681,0.67-1.216,1.48-1.605,2.43
			c-0.39,0.95-0.585,2.005-0.585,3.165c0,1.181,0.195,2.235,0.585,3.166c0.39,0.929,0.931,1.714,1.62,2.355
			c0.689,0.64,1.505,1.135,2.445,1.484c0.939,0.351,1.969,0.525,3.09,0.525c2.699,0,4.76-0.96,6.18-2.881l-2.4-1.919
			c-0.4,0.581-0.91,1.035-1.529,1.365c-0.62,0.331-1.38,0.496-2.28,0.496c-0.521,0-1.021-0.09-1.5-0.271
			c-0.479-0.179-0.91-0.424-1.29-0.734c-0.38-0.31-0.686-0.68-0.915-1.11c-0.229-0.43-0.365-0.905-0.405-1.425h10.951
			c0.02-0.16,0.029-0.32,0.029-0.48v-0.48C195,33.42,194.824,32.286,194.475,31.316z M184.02,33.1
			c0.08-1.02,0.496-1.854,1.246-2.505c0.75-0.649,1.664-0.975,2.744-0.975c0.58,0,1.085,0.095,1.516,0.285
			c0.43,0.19,0.784,0.445,1.064,0.765c0.28,0.321,0.484,0.69,0.615,1.11c0.13,0.42,0.195,0.86,0.195,1.319H184.02z M118.461,50.027
			h-16v3l6.188-0.227V70.74h3.779V52.801l6.032,0.227V50.027z M124.029,55.92c-0.96,0-1.8,0.26-2.521,0.781
			c-0.72,0.52-1.279,1.199-1.68,2.039h-0.06v-2.4h-3.45v14.4h3.6v-7.711c0-0.258,0.05-0.609,0.15-1.049
			c0.1-0.439,0.289-0.871,0.57-1.291c0.279-0.42,0.67-0.779,1.17-1.078c0.5-0.301,1.16-0.451,1.979-0.451
			c0.16,0,0.325,0.012,0.495,0.031s0.375,0.059,0.615,0.119V56.01c-0.12-0.039-0.26-0.064-0.42-0.074S124.169,55.92,124.029,55.92z
			 M137.659,57.871c-0.479-0.58-1.135-1.051-1.965-1.41c-0.83-0.361-1.885-0.541-3.164-0.541c-1.101,0-2.186,0.191-3.256,0.57
			c-1.07,0.381-2.015,0.951-2.834,1.711l1.859,2.189c0.46-0.461,1.039-0.85,1.74-1.17c0.699-0.32,1.43-0.48,2.189-0.48
			c0.9,0,1.675,0.215,2.325,0.645c0.649,0.432,0.976,1.096,0.976,1.996v0.359c-1.121,0-2.266,0.055-3.436,0.166
			c-1.17,0.109-2.235,0.334-3.195,0.674c-0.959,0.34-1.744,0.83-2.354,1.471s-0.915,1.5-0.915,2.58c0,0.84,0.175,1.545,0.525,2.115
			c0.35,0.568,0.789,1.029,1.319,1.379s1.11,0.6,1.74,0.75s1.234,0.225,1.815,0.225c1.02,0,1.93-0.205,2.729-0.615
			c0.8-0.408,1.38-0.934,1.74-1.574h0.09v1.83h3.36v-8.76c0-0.721-0.096-1.439-0.285-2.16
			C138.475,59.1,138.14,58.451,137.659,57.871z M135.53,64.68c0,1.141-0.32,2.041-0.961,2.701s-1.58,0.99-2.82,0.99
			c-0.299,0-0.6-0.031-0.899-0.09c-0.3-0.061-0.569-0.16-0.81-0.301c-0.24-0.139-0.436-0.324-0.586-0.555
			c-0.149-0.23-0.225-0.516-0.225-0.855c0-0.541,0.18-0.965,0.54-1.275c0.36-0.309,0.81-0.549,1.351-0.719
			c0.539-0.17,1.129-0.281,1.77-0.33c0.641-0.051,1.25-0.076,1.83-0.076h0.811V64.68z M144.835,60.391
			c0.33-0.439,0.744-0.795,1.245-1.066c0.499-0.27,1.079-0.404,1.739-0.404c0.58,0,1.15,0.135,1.711,0.404
			c0.559,0.271,0.979,0.605,1.26,1.006l2.459-2.16c-0.58-0.699-1.364-1.248-2.354-1.648c-0.99-0.4-2.016-0.602-3.076-0.602
			c-1.06,0-2.055,0.18-2.984,0.541c-0.93,0.359-1.746,0.869-2.445,1.529c-0.7,0.66-1.256,1.461-1.665,2.4
			c-0.41,0.939-0.615,1.99-0.615,3.15c0,1.199,0.205,2.27,0.615,3.209c0.409,0.941,0.97,1.74,1.681,2.4
			c0.709,0.66,1.539,1.16,2.489,1.5s1.955,0.51,3.015,0.51c1.08,0,2.086-0.176,3.016-0.525s1.695-0.844,2.295-1.484l-2.25-2.279
			c-0.34,0.42-0.791,0.74-1.35,0.959c-0.561,0.221-1.121,0.33-1.68,0.33c-0.682,0-1.275-0.135-1.785-0.404
			c-0.511-0.27-0.936-0.625-1.275-1.064s-0.596-0.936-0.766-1.486c-0.17-0.549-0.255-1.104-0.255-1.664s0.08-1.115,0.24-1.666
			C144.26,61.326,144.505,60.83,144.835,60.391z M168.22,56.34h-4.62l-5.46,6.061h-0.09v-14.34h-3.6v22.68h3.6v-7.381h0.09
			l5.7,7.381h4.77l-6.63-7.891L168.22,56.34z"/>
	</g>
</g>
</svg>
