<?xml version="1.0" encoding="UTF-8" standalone="no"?>
<!DOCTYPE svg PUBLIC "-//W3C//DTD SVG 1.1//EN"
 "http://www.w3.org/Graphics/SVG/1.1/DTD/svg11.dtd">
<!-- Generated by graphviz version 2.36.0 (20140111.2315)
 -->
<!-- Title: controllers_diagram Pages: 1 -->
<svg width="522pt" height="549pt"
 viewBox="0.00 0.00 522.00 549.00" xmlns="http://www.w3.org/2000/svg" xmlns:xlink="http://www.w3.org/1999/xlink">
<g id="graph0" class="graph" transform="scale(1 1) rotate(0) translate(4 545)">
<title>controllers_diagram</title>
<polygon fill="white" stroke="none" points="-4,4 -4,-545 518,-545 518,4 -4,4"/>
<!-- _diagram_info -->
<g id="node1" class="node"><title>_diagram_info</title>
<text text-anchor="start" x="314" y="-165.6" font-family="Times,serif" font-size="13.00">Controllers diagram</text>
<text text-anchor="start" x="314" y="-151.6" font-family="Times,serif" font-size="13.00">Date: Apr 24 2015 &#45; 11:45</text>
<text text-anchor="start" x="314" y="-137.6" font-family="Times,serif" font-size="13.00">Migration version: 20150416015639</text>
<text text-anchor="start" x="314" y="-123.6" font-family="Times,serif" font-size="13.00">Generated by RailRoady 1.3.0</text>
<text text-anchor="start" x="314" y="-109.6" font-family="Times,serif" font-size="13.00">http://railroady.prestonlee.com</text>
</g>
<!-- AdminController -->
<g id="node2" class="node"><title>AdminController</title>
<path fill="none" stroke="black" d="M12,-408.5C12,-408.5 101,-408.5 101,-408.5 107,-408.5 113,-414.5 113,-420.5 113,-420.5 113,-519.5 113,-519.5 113,-525.5 107,-531.5 101,-531.5 101,-531.5 12,-531.5 12,-531.5 6,-531.5 0,-525.5 0,-519.5 0,-519.5 0,-420.5 0,-420.5 0,-414.5 6,-408.5 12,-408.5"/>
<text text-anchor="middle" x="56.5" y="-516.3" font-family="Times,serif" font-size="14.00">AdminController</text>
<polyline fill="none" stroke="black" points="0,-508.5 113,-508.5 "/>
<text text-anchor="start" x="8" y="-493.3" font-family="Times,serif" font-size="14.00">destroy</text>
<text text-anchor="start" x="8" y="-478.3" font-family="Times,serif" font-size="14.00">index</text>
<text text-anchor="start" x="8" y="-463.3" font-family="Times,serif" font-size="14.00">new</text>
<polyline fill="none" stroke="black" points="0,-455.5 113,-455.5 "/>
<polyline fill="none" stroke="black" points="0,-431.5 113,-431.5 "/>
<text text-anchor="start" x="8" y="-416.3" font-family="Times,serif" font-size="14.00">_layout</text>
</g>
<!-- ApplicationController -->
<g id="node3" class="node"><title>ApplicationController</title>
<path fill="none" stroke="black" d="M301,-357.5C301,-357.5 475,-357.5 475,-357.5 481,-357.5 487,-363.5 487,-369.5 487,-369.5 487,-453.5 487,-453.5 487,-459.5 481,-465.5 475,-465.5 475,-465.5 301,-465.5 301,-465.5 295,-465.5 289,-459.5 289,-453.5 289,-453.5 289,-369.5 289,-369.5 289,-363.5 295,-357.5 301,-357.5"/>
<text text-anchor="middle" x="388" y="-450.3" font-family="Times,serif" font-size="14.00">ApplicationController</text>
<polyline fill="none" stroke="black" points="289,-442.5 487,-442.5 "/>
<polyline fill="none" stroke="black" points="289,-418.5 487,-418.5 "/>
<text text-anchor="start" x="297" y="-403.3" font-family="Times,serif" font-size="14.00">configure_permitted_parameters</text>
<text text-anchor="start" x="297" y="-388.3" font-family="Times,serif" font-size="14.00">user_not_authorized</text>
<polyline fill="none" stroke="black" points="289,-380.5 487,-380.5 "/>
<text text-anchor="start" x="297" y="-365.3" font-family="Times,serif" font-size="14.00">_layout</text>
</g>
<!-- EmailController -->
<g id="node4" class="node"><title>EmailController</title>
<path fill="none" stroke="black" d="M165,-357.5C165,-357.5 251,-357.5 251,-357.5 257,-357.5 263,-363.5 263,-369.5 263,-369.5 263,-528.5 263,-528.5 263,-534.5 257,-540.5 251,-540.5 251,-540.5 165,-540.5 165,-540.5 159,-540.5 153,-534.5 153,-528.5 153,-528.5 153,-369.5 153,-369.5 153,-363.5 159,-357.5 165,-357.5"/>
<text text-anchor="middle" x="208" y="-525.3" font-family="Times,serif" font-size="14.00">EmailController</text>
<polyline fill="none" stroke="black" points="153,-517.5 263,-517.5 "/>
<text text-anchor="start" x="161" y="-502.3" font-family="Times,serif" font-size="14.00">create_message</text>
<text text-anchor="start" x="161" y="-487.3" font-family="Times,serif" font-size="14.00">delete_message</text>
<text text-anchor="start" x="161" y="-472.3" font-family="Times,serif" font-size="14.00">deliver_message</text>
<text text-anchor="start" x="161" y="-457.3" font-family="Times,serif" font-size="14.00">email_list</text>
<text text-anchor="start" x="161" y="-442.3" font-family="Times,serif" font-size="14.00">index</text>
<text text-anchor="start" x="161" y="-427.3" font-family="Times,serif" font-size="14.00">load_from_s3</text>
<polyline fill="none" stroke="black" points="153,-419.5 263,-419.5 "/>
<polyline fill="none" stroke="black" points="153,-395.5 263,-395.5 "/>
<text text-anchor="start" x="161" y="-380.3" font-family="Times,serif" font-size="14.00">_layout</text>
<text text-anchor="start" x="161" y="-365.3" font-family="Times,serif" font-size="14.00">email_params</text>
</g>
<!-- HomeController -->
<g id="node5" class="node"><title>HomeController</title>
<path fill="none" stroke="black" d="M182,-0.5C182,-0.5 266,-0.5 266,-0.5 272,-0.5 278,-6.5 278,-12.5 278,-12.5 278,-81.5 278,-81.5 278,-87.5 272,-93.5 266,-93.5 266,-93.5 182,-93.5 182,-93.5 176,-93.5 170,-87.5 170,-81.5 170,-81.5 170,-12.5 170,-12.5 170,-6.5 176,-0.5 182,-0.5"/>
<text text-anchor="middle" x="224" y="-78.3" font-family="Times,serif" font-size="14.00">HomeController</text>
<polyline fill="none" stroke="black" points="170,-70.5 278,-70.5 "/>
<text text-anchor="start" x="178" y="-55.3" font-family="Times,serif" font-size="14.00">index</text>
<polyline fill="none" stroke="black" points="170,-47.5 278,-47.5 "/>
<polyline fill="none" stroke="black" points="170,-23.5 278,-23.5 "/>
<text text-anchor="start" x="178" y="-8.3" font-family="Times,serif" font-size="14.00">_layout</text>
</g>
<!-- SalesforceController -->
<g id="node6" class="node"><title>SalesforceController</title>
<path fill="none" stroke="black" d="M318,-221.5C318,-221.5 426,-221.5 426,-221.5 432,-221.5 438,-227.5 438,-233.5 438,-233.5 438,-317.5 438,-317.5 438,-323.5 432,-329.5 426,-329.5 426,-329.5 318,-329.5 318,-329.5 312,-329.5 306,-323.5 306,-317.5 306,-317.5 306,-233.5 306,-233.5 306,-227.5 312,-221.5 318,-221.5"/>
<text text-anchor="middle" x="372" y="-314.3" font-family="Times,serif" font-size="14.00">SalesforceController</text>
<polyline fill="none" stroke="black" points="306,-306.5 438,-306.5 "/>
<text text-anchor="start" x="314" y="-291.3" font-family="Times,serif" font-size="14.00">reset_salesforce</text>
<text text-anchor="start" x="314" y="-276.3" font-family="Times,serif" font-size="14.00">save_password</text>
<polyline fill="none" stroke="black" points="306,-268.5 438,-268.5 "/>
<polyline fill="none" stroke="black" points="306,-244.5 438,-244.5 "/>
<text text-anchor="start" x="314" y="-229.3" font-family="Times,serif" font-size="14.00">_layout</text>
</g>
<!-- Users::OmniauthCallbacksController -->
<g id="node7" class="node"><title>Users::OmniauthCallbacksController</title>
<path fill="none" stroke="black" d="M63,-136.5C63,-136.5 264,-136.5 264,-136.5 270,-136.5 276,-142.5 276,-148.5 276,-148.5 276,-307.5 276,-307.5 276,-313.5 270,-319.5 264,-319.5 264,-319.5 63,-319.5 63,-319.5 57,-319.5 51,-313.5 51,-307.5 51,-307.5 51,-148.5 51,-148.5 51,-142.5 57,-136.5 63,-136.5"/>
<text text-anchor="middle" x="163.5" y="-304.3" font-family="Times,serif" font-size="14.00">Users::OmniauthCallbacksController</text>
<polyline fill="none" stroke="black" points="51,-296.5 276,-296.5 "/>
<text text-anchor="start" x="59" y="-281.3" font-family="Times,serif" font-size="14.00">check_auth_or_redirect</text>
<text text-anchor="start" x="59" y="-266.3" font-family="Times,serif" font-size="14.00">failure</text>
<text text-anchor="start" x="59" y="-251.3" font-family="Times,serif" font-size="14.00">google_oauth2</text>
<text text-anchor="start" x="59" y="-236.3" font-family="Times,serif" font-size="14.00">popup</text>
<text text-anchor="start" x="59" y="-221.3" font-family="Times,serif" font-size="14.00">sales_auth</text>
<text text-anchor="start" x="59" y="-206.3" font-family="Times,serif" font-size="14.00">set_access_token</text>
<text text-anchor="start" x="59" y="-191.3" font-family="Times,serif" font-size="14.00">warn_with_redirect</text>
<polyline fill="none" stroke="black" points="51,-183.5 276,-183.5 "/>
<polyline fill="none" stroke="black" points="51,-159.5 276,-159.5 "/>
<text text-anchor="start" x="59" y="-144.3" font-family="Times,serif" font-size="14.00">_layout</text>
</g>
</g>
</svg>
