<?xml version="1.0" encoding="UTF-8" standalone="no"?>
<!DOCTYPE svg PUBLIC "-//W3C//DTD SVG 1.1//EN"
 "http://www.w3.org/Graphics/SVG/1.1/DTD/svg11.dtd">
<!-- Generated by graphviz version 2.36.0 (20140111.2315)
 -->
<!-- Title: models_diagram Pages: 1 -->
<svg width="556pt" height="658pt"
 viewBox="0.00 0.00 556.00 658.00" xmlns="http://www.w3.org/2000/svg" xmlns:xlink="http://www.w3.org/1999/xlink">
<g id="graph0" class="graph" transform="scale(1 1) rotate(0) translate(4 654)">
<title>models_diagram</title>
<polygon fill="white" stroke="none" points="-4,4 -4,-654 552,-654 552,4 -4,4"/>
<!-- _diagram_info -->
<g id="node1" class="node"><title>_diagram_info</title>
<text text-anchor="start" x="8" y="-545.6" font-family="Times,serif" font-size="13.00">Models diagram</text>
<text text-anchor="start" x="8" y="-531.6" font-family="Times,serif" font-size="13.00">Date: Apr 24 2015 &#45; 11:45</text>
<text text-anchor="start" x="8" y="-517.6" font-family="Times,serif" font-size="13.00">Migration version: 20150416015639</text>
<text text-anchor="start" x="8" y="-503.6" font-family="Times,serif" font-size="13.00">Generated by RailRoady 1.3.0</text>
<text text-anchor="start" x="8" y="-489.6" font-family="Times,serif" font-size="13.00">http://railroady.prestonlee.com</text>
</g>
<!-- Attachment -->
<g id="node2" class="node"><title>Attachment</title>
<path fill="none" stroke="black" d="M214,-0.5C214,-0.5 348,-0.5 348,-0.5 354,-0.5 360,-6.5 360,-12.5 360,-12.5 360,-139.5 360,-139.5 360,-145.5 354,-151.5 348,-151.5 348,-151.5 214,-151.5 214,-151.5 208,-151.5 202,-145.5 202,-139.5 202,-139.5 202,-12.5 202,-12.5 202,-6.5 208,-0.5 214,-0.5"/>
<text text-anchor="middle" x="281" y="-136.3" font-family="Times,serif" font-size="14.00">Attachment</text>
<polyline fill="none" stroke="black" points="202,-128.5 360,-128.5 "/>
<text text-anchor="start" x="210" y="-113.3" font-family="Times,serif" font-size="14.00">id :integer</text>
<text text-anchor="start" x="210" y="-98.3" font-family="Times,serif" font-size="14.00">created_at :datetime</text>
<text text-anchor="start" x="210" y="-83.3" font-family="Times,serif" font-size="14.00">updated_at :datetime</text>
<text text-anchor="start" x="210" y="-68.3" font-family="Times,serif" font-size="14.00">file_file_name :string</text>
<text text-anchor="start" x="210" y="-53.3" font-family="Times,serif" font-size="14.00">file_content_type :string</text>
<text text-anchor="start" x="210" y="-38.3" font-family="Times,serif" font-size="14.00">file_file_size :integer</text>
<text text-anchor="start" x="210" y="-23.3" font-family="Times,serif" font-size="14.00">file_updated_at :datetime</text>
<text text-anchor="start" x="210" y="-8.3" font-family="Times,serif" font-size="14.00">draft_id :integer</text>
</g>
<!-- Draft -->
<g id="node3" class="node"><title>Draft</title>
<path fill="none" stroke="black" d="M274,-189C274,-189 384,-189 384,-189 390,-189 396,-195 396,-201 396,-201 396,-343 396,-343 396,-349 390,-355 384,-355 384,-355 274,-355 274,-355 268,-355 262,-349 262,-343 262,-343 262,-201 262,-201 262,-195 268,-189 274,-189"/>
<text text-anchor="middle" x="329" y="-339.8" font-family="Times,serif" font-size="14.00">Draft</text>
<polyline fill="none" stroke="black" points="262,-332 396,-332 "/>
<text text-anchor="start" x="270" y="-316.8" font-family="Times,serif" font-size="14.00">id :integer</text>
<text text-anchor="start" x="270" y="-301.8" font-family="Times,serif" font-size="14.00">created_at :datetime</text>
<text text-anchor="start" x="270" y="-286.8" font-family="Times,serif" font-size="14.00">updated_at :datetime</text>
<text text-anchor="start" x="270" y="-271.8" font-family="Times,serif" font-size="14.00">subject :string</text>
<text text-anchor="start" x="270" y="-256.8" font-family="Times,serif" font-size="14.00">body :text</text>
<text text-anchor="start" x="270" y="-241.8" font-family="Times,serif" font-size="14.00">to :text</text>
<text text-anchor="start" x="270" y="-226.8" font-family="Times,serif" font-size="14.00">cc :text</text>
<text text-anchor="start" x="270" y="-211.8" font-family="Times,serif" font-size="14.00">bcc :text</text>
<text text-anchor="start" x="270" y="-196.8" font-family="Times,serif" font-size="14.00">user_id :integer</text>
</g>
<!-- Draft&#45;&gt;Attachment -->
<g id="edge1" class="edge"><title>Draft&#45;&gt;Attachment</title>
<path fill="none" stroke="#162651" d="M306.711,-180.914C305.123,-174.499 303.526,-168.043 301.947,-161.659"/>
<ellipse fill="none" stroke="#162651" cx="307.683" cy="-184.844" rx="4.00001" ry="4.00001"/>
<polygon fill="#162651" stroke="#162651" points="301.885,-161.411 303.852,-150.623 300.684,-156.558 299.483,-151.704 299.483,-151.704 299.483,-151.704 300.684,-156.558 295.115,-152.785 301.885,-161.411 301.885,-161.411"/>
</g>
<!-- Token -->
<g id="node4" class="node"><title>Token</title>
<path fill="none" stroke="black" d="M426,-204C426,-204 536,-204 536,-204 542,-204 548,-210 548,-216 548,-216 548,-328 548,-328 548,-334 542,-340 536,-340 536,-340 426,-340 426,-340 420,-340 414,-334 414,-328 414,-328 414,-216 414,-216 414,-210 420,-204 426,-204"/>
<text text-anchor="middle" x="481" y="-324.8" font-family="Times,serif" font-size="14.00">Token</text>
<polyline fill="none" stroke="black" points="414,-317 548,-317 "/>
<text text-anchor="start" x="422" y="-301.8" font-family="Times,serif" font-size="14.00">id :integer</text>
<text text-anchor="start" x="422" y="-286.8" font-family="Times,serif" font-size="14.00">access_token :string</text>
<text text-anchor="start" x="422" y="-271.8" font-family="Times,serif" font-size="14.00">refresh_token :string</text>
<text text-anchor="start" x="422" y="-256.8" font-family="Times,serif" font-size="14.00">expires_at :datetime</text>
<text text-anchor="start" x="422" y="-241.8" font-family="Times,serif" font-size="14.00">created_at :datetime</text>
<text text-anchor="start" x="422" y="-226.8" font-family="Times,serif" font-size="14.00">updated_at :datetime</text>
<text text-anchor="start" x="422" y="-211.8" font-family="Times,serif" font-size="14.00">user_id :integer</text>
</g>
<!-- User -->
<g id="node5" class="node"><title>User</title>
<path fill="none" stroke="black" d="M238.5,-393C238.5,-393 419.5,-393 419.5,-393 425.5,-393 431.5,-399 431.5,-405 431.5,-405 431.5,-637 431.5,-637 431.5,-643 425.5,-649 419.5,-649 419.5,-649 238.5,-649 238.5,-649 232.5,-649 226.5,-643 226.5,-637 226.5,-637 226.5,-405 226.5,-405 226.5,-399 232.5,-393 238.5,-393"/>
<text text-anchor="middle" x="329" y="-633.8" font-family="Times,serif" font-size="14.00">User</text>
<polyline fill="none" stroke="black" points="226.5,-626 431.5,-626 "/>
<text text-anchor="start" x="234.5" y="-610.8" font-family="Times,serif" font-size="14.00">id :integer</text>
<text text-anchor="start" x="234.5" y="-595.8" font-family="Times,serif" font-size="14.00">email :string</text>
<text text-anchor="start" x="234.5" y="-580.8" font-family="Times,serif" font-size="14.00">encrypted_password :string</text>
<text text-anchor="start" x="234.5" y="-565.8" font-family="Times,serif" font-size="14.00">reset_password_token :string</text>
<text text-anchor="start" x="234.5" y="-550.8" font-family="Times,serif" font-size="14.00">reset_password_sent_at :datetime</text>
<text text-anchor="start" x="234.5" y="-535.8" font-family="Times,serif" font-size="14.00">remember_created_at :datetime</text>
<text text-anchor="start" x="234.5" y="-520.8" font-family="Times,serif" font-size="14.00">sign_in_count :integer</text>
<text text-anchor="start" x="234.5" y="-505.8" font-family="Times,serif" font-size="14.00">current_sign_in_at :datetime</text>
<text text-anchor="start" x="234.5" y="-490.8" font-family="Times,serif" font-size="14.00">last_sign_in_at :datetime</text>
<text text-anchor="start" x="234.5" y="-475.8" font-family="Times,serif" font-size="14.00">current_sign_in_ip :string</text>
<text text-anchor="start" x="234.5" y="-460.8" font-family="Times,serif" font-size="14.00">last_sign_in_ip :string</text>
<text text-anchor="start" x="234.5" y="-445.8" font-family="Times,serif" font-size="14.00">created_at :datetime</text>
<text text-anchor="start" x="234.5" y="-430.8" font-family="Times,serif" font-size="14.00">updated_at :datetime</text>
<text text-anchor="start" x="234.5" y="-415.8" font-family="Times,serif" font-size="14.00">name :string</text>
<text text-anchor="start" x="234.5" y="-400.8" font-family="Times,serif" font-size="14.00">role :string</text>
</g>
<!-- User&#45;&gt;Attachment -->
<g id="edge4" class="edge"><title>User&#45;&gt;Attachment</title>
<path fill="none" stroke="#963b86" d="M260.531,-383.435C257.568,-374.291 255.006,-365.098 253,-356 236.926,-283.084 243.798,-262.098 253,-188 254.068,-179.402 255.584,-170.514 257.364,-161.683"/>
<polygon fill="#963b86" stroke="#963b86" points="260.543,-383.471 259.497,-394.387 262.151,-388.206 263.758,-392.941 263.758,-392.941 263.758,-392.941 262.151,-388.206 268.019,-391.494 260.543,-383.471 260.543,-383.471"/>
<polygon fill="#963b86" stroke="#963b86" points="257.395,-161.537 263.879,-152.693 258.436,-156.646 259.478,-151.756 259.478,-151.756 259.478,-151.756 258.436,-156.646 255.076,-150.819 257.395,-161.537 257.395,-161.537"/>
</g>
<!-- User&#45;&gt;Draft -->
<g id="edge3" class="edge"><title>User&#45;&gt;Draft</title>
<path fill="none" stroke="#fc8cc3" d="M329,-384.816C329,-377.602 329,-370.441 329,-363.434"/>
<ellipse fill="none" stroke="#fc8cc3" cx="329" cy="-388.882" rx="4" ry="4"/>
<ellipse fill="#fc8cc3" stroke="#fc8cc3" cx="329" cy="-359.285" rx="4" ry="4"/>
</g>
<!-- User&#45;&gt;Token -->
<g id="edge2" class="edge"><title>User&#45;&gt;Token</title>
<path fill="none" stroke="#74093b" d="M411.422,-386.064C419.669,-372.662 427.815,-359.426 435.467,-346.991"/>
<ellipse fill="none" stroke="#74093b" cx="409.323" cy="-389.476" rx="4.00002" ry="4.00002"/>
<ellipse fill="#74093b" stroke="#74093b" cx="437.568" cy="-343.577" rx="4.00002" ry="4.00002"/>
</g>
</g>
</svg>
