<?xml version="1.0" encoding="UTF-8" standalone="no"?>
<!DOCTYPE svg PUBLIC "-//W3C//DTD SVG 1.1//EN"
 "http://www.w3.org/Graphics/SVG/1.1/DTD/svg11.dtd">
<!-- Generated by graphviz version 2.36.0 (20140111.2315)
 -->
<!-- Title: models_diagram Pages: 1 -->
<svg width="377pt" height="230pt"
 viewBox="0.00 0.00 377.00 230.00" xmlns="http://www.w3.org/2000/svg" xmlns:xlink="http://www.w3.org/1999/xlink">
<g id="graph0" class="graph" transform="scale(1 1) rotate(0) translate(4 226)">
<title>models_diagram</title>
<polygon fill="white" stroke="none" points="-4,4 -4,-226 373,-226 373,4 -4,4"/>
<!-- _diagram_info -->
<g id="node1" class="node"><title>_diagram_info</title>
<text text-anchor="start" x="8" y="-207.6" font-family="Times,serif" font-size="13.00">Models diagram</text>
<text text-anchor="start" x="8" y="-193.6" font-family="Times,serif" font-size="13.00">Date: Apr 24 2015 &#45; 11:45</text>
<text text-anchor="start" x="8" y="-179.6" font-family="Times,serif" font-size="13.00">Migration version: 20150416015639</text>
<text text-anchor="start" x="8" y="-165.6" font-family="Times,serif" font-size="13.00">Generated by RailRoady 1.3.0</text>
<text text-anchor="start" x="8" y="-151.6" font-family="Times,serif" font-size="13.00">http://railroady.prestonlee.com</text>
</g>
<!-- Attachment -->
<g id="node2" class="node"><title>Attachment</title>
<ellipse fill="none" stroke="black" cx="225" cy="-18" rx="52.9443" ry="18"/>
<text text-anchor="middle" x="225" y="-14.3" font-family="Times,serif" font-size="14.00">Attachment</text>
</g>
<!-- Draft -->
<g id="node3" class="node"><title>Draft</title>
<ellipse fill="none" stroke="black" cx="254" cy="-90" rx="29.3479" ry="18"/>
<text text-anchor="middle" x="254" y="-86.3" font-family="Times,serif" font-size="14.00">Draft</text>
</g>
<!-- Draft&#45;&gt;Attachment -->
<g id="edge1" class="edge"><title>Draft&#45;&gt;Attachment</title>
<path fill="none" stroke="#739695" d="M243.965,-64.7779C241.383,-58.544 238.59,-51.8046 235.963,-45.4634"/>
<ellipse fill="none" stroke="#739695" cx="245.596" cy="-68.7155" rx="4.00001" ry="4.00001"/>
<polygon fill="#739695" stroke="#739695" points="235.852,-45.1948 236.182,-34.2339 233.938,-40.5755 232.025,-35.9562 232.025,-35.9562 232.025,-35.9562 233.938,-40.5755 227.867,-37.6786 235.852,-45.1948 235.852,-45.1948"/>
</g>
<!-- Token -->
<g id="node4" class="node"><title>Token</title>
<ellipse fill="none" stroke="black" cx="336" cy="-90" rx="33.1991" ry="18"/>
<text text-anchor="middle" x="336" y="-86.3" font-family="Times,serif" font-size="14.00">Token</text>
</g>
<!-- User -->
<g id="node5" class="node"><title>User</title>
<ellipse fill="none" stroke="black" cx="254" cy="-183" rx="27.4223" ry="18"/>
<text text-anchor="middle" x="254" y="-179.3" font-family="Times,serif" font-size="14.00">User</text>
</g>
<!-- User&#45;&gt;Attachment -->
<g id="edge4" class="edge"><title>User&#45;&gt;Attachment</title>
<path fill="none" stroke="#32d340" d="M237.509,-157.983C228.96,-144.061 219.406,-125.809 215,-108 209.912,-87.4338 213.073,-63.5471 217.144,-45.701"/>
<polygon fill="#32d340" stroke="#32d340" points="237.538,-158.028 239.124,-168.879 240.228,-162.243 242.918,-166.458 242.918,-166.458 242.918,-166.458 240.228,-162.243 246.711,-164.037 237.538,-158.028 237.538,-158.028"/>
<polygon fill="#32d340" stroke="#32d340" points="217.154,-45.661 223.954,-37.0586 218.372,-40.8116 219.59,-35.9623 219.59,-35.9623 219.59,-35.9623 218.372,-40.8116 215.226,-34.866 217.154,-45.661 217.154,-45.661"/>
</g>
<!-- User&#45;&gt;Draft -->
<g id="edge3" class="edge"><title>User&#45;&gt;Draft</title>
<path fill="none" stroke="#07b42b" d="M254,-156.729C254,-144.118 254,-128.905 254,-116.292"/>
<ellipse fill="none" stroke="#07b42b" cx="254" cy="-160.884" rx="4" ry="4"/>
<ellipse fill="#07b42b" stroke="#07b42b" cx="254" cy="-112.04" rx="4" ry="4"/>
</g>
<!-- User&#45;&gt;Token -->
<g id="edge2" class="edge"><title>User&#45;&gt;Token</title>
<path fill="none" stroke="#e40a16" d="M273.164,-160.733C286.098,-146.379 303.126,-127.482 316.193,-112.981"/>
<ellipse fill="none" stroke="#e40a16" cx="270.218" cy="-164.002" rx="4.00002" ry="4.00002"/>
<ellipse fill="#e40a16" stroke="#e40a16" cx="319.211" cy="-109.631" rx="4.00002" ry="4.00002"/>
</g>
</g>
</svg>
